<svg xmlns="http://www.w3.org/2000/svg" viewBox="0 0 32 32">
  <defs>
    <linearGradient id="grad" x1="0%" y1="0%" x2="100%" y2="100%">
      <stop offset="0%" style="stop-color:#10b981;stop-opacity:1" />
      <stop offset="100%" style="stop-color:#059669;stop-opacity:1" />
    </linearGradient>
  </defs>
  <circle cx="16" cy="16" r="15" fill="url(#grad)" />
  <path d="M16 8c-3.3 0-6 2.7-6 6 0 1.5.6 2.8 1.5 3.8-.5 1-1.5 2.2-1.5 3.2 0 1.5 1.5 3 3 3h6c1.5 0 3-1.5 3-3 0-1-1-2.2-1.5-3.2.9-1 1.5-2.3 1.5-3.8 0-3.3-2.7-6-6-6zm-2 16h4v1h-4v-1zm1-13c-.6 0-1 .4-1 1s.4 1 1 1 1-.4 1-1-.4-1-1-1zm3 2c-.6 0-1 .4-1 1s.4 1 1 1 1-.4 1-1-.4-1-1-1zm-4 3c-.6 0-1 .4-1 1s.4 1 1 1 1-.4 1-1-.4-1-1-1z" fill="#ffffff" />
  <path d="M22 22l4-4m0 0l-1.5 0m1.5 0l0 1.5" stroke="#ffffff" stroke-width="2" stroke-linecap="round" stroke-linejoin="round" />
</svg>
